<svg width="16" height="16" viewBox="0 0 16 16" fill="none" xmlns="http://www.w3.org/2000/svg">
    <path d="M14.8867 12.0966C14.6561 12.5947 14.3711 13.0696 14.0362 13.5141C13.5889 14.106 13.2216 14.5149 12.9401 14.7426C12.5028 15.1145 12.033 15.3059 11.5307 15.3167C11.1708 15.3167 10.736 15.2218 10.2296 15.0289C9.72147 14.8367 9.255 14.7426 8.82769 14.7426C8.38039 14.7426 7.9006 14.8367 7.38666 15.0289C6.87355 15.2218 6.45873 15.3229 6.14137 15.3321C5.66074 15.3514 5.18012 15.1554 4.70116 14.7426C4.39546 14.4956 4.01313 14.0712 3.55417 13.4709C3.06271 12.8312 2.65872 12.0865 2.3422 11.24C2.00318 10.3241 1.83325 9.43819 1.83325 8.58011C1.83325 7.59778 2.06232 6.74973 2.52128 6.03981C2.86842 5.48226 3.36471 5.01692 3.96232 4.68863C4.55162 4.36119 5.22434 4.18488 5.91147 4.17779C6.29463 4.17779 6.79691 4.28737 7.41914 4.50343C8.04137 4.7195 8.4412 4.82907 8.61529 4.82907C8.74689 4.82907 9.1892 4.70021 9.94221 4.44479C10.6527 4.20789 11.2525 4.10989 11.7439 4.14847C13.0767 4.24802 14.0771 4.73416 14.7426 5.61076C13.5515 6.27979 12.9626 7.21581 12.9742 8.41729C12.9842 9.35331 13.3515 10.1319 14.0712 10.75C14.3894 11.0321 14.7606 11.2578 15.1666 11.416C15.0783 11.6529 14.985 11.8789 14.8867 12.0966ZM11.8322 0.96075C11.8322 1.69383 11.5423 2.37906 10.9668 3.01259C10.2704 3.76573 9.4291 4.20172 8.51699 4.13304C8.50506 4.04086 8.49922 3.94808 8.4995 3.85524C8.4995 3.15072 8.82936 2.39758 9.41827 1.78102C9.71147 1.46927 10.0846 1.20922 10.5369 1.00242C10.9884 0.798702 11.4149 0.68604 11.8164 0.666748C11.8272 0.76552 11.8322 0.863521 11.8322 0.96075Z"
          fill="#171717"/>
</svg>
