<svg width="17" height="16" viewBox="0 0 17 16" fill="none" xmlns="http://www.w3.org/2000/svg">
    <path d="M15.8335 8.16282C15.8335 7.55986 15.7836 7.11986 15.6756 6.66357H8.6499V9.38502H12.7738C12.6907 10.0613 12.2417 11.0799 11.244 11.7643L11.23 11.8554L13.4514 13.5418L13.6053 13.5569C15.0187 12.2776 15.8335 10.3954 15.8335 8.16282Z"
          fill="#4285F4"/>
    <path d="M8.64963 15.3335C10.67 15.3335 12.3661 14.6816 13.605 13.5571L11.2437 11.7645C10.6118 12.1964 9.76373 12.4978 8.64963 12.4978C6.67082 12.4978 4.99132 11.2186 4.39263 9.45044L4.30488 9.45774L1.99505 11.2096L1.96484 11.2919C3.19536 13.6875 5.72294 15.3335 8.64963 15.3335Z"
          fill="#34A853"/>
    <path d="M4.3927 9.45053C4.23473 8.99424 4.14331 8.50532 4.14331 8.00016C4.14331 7.49494 4.23473 7.00607 4.38439 6.54978L4.38021 6.4526L2.04143 4.67261L1.96491 4.70828C1.45776 5.70236 1.16675 6.81868 1.16675 8.00016C1.16675 9.18163 1.45776 10.2979 1.96491 11.292L4.3927 9.45053Z"
          fill="#FBBC05"/>
    <path d="M8.64942 3.50228C10.0545 3.50228 11.0024 4.09709 11.5428 4.59416L13.6547 2.57341C12.3577 1.39194 10.6698 0.666748 8.64942 0.666748C5.72271 0.666748 3.19512 2.31266 1.9646 4.70819L4.38409 6.5497C4.9911 4.78156 6.6706 3.50228 8.64942 3.50228Z"
          fill="#EB4335"/>
</svg>
