<svg width="16" height="16" viewBox="0 0 16 16" fill="none" xmlns="http://www.w3.org/2000/svg">
    <path d="M2.5 4V9" stroke="#171717" stroke-width="1.5" stroke-linecap="round" stroke-linejoin="round"/>
    <path d="M3.88745 13.5C4.38774 12.7326 5.07156 12.1022 5.87697 11.6659C6.68238 11.2295 7.58393 11.001 8.49995 11.001C9.41597 11.001 10.3175 11.2295 11.1229 11.6659C11.9283 12.1022 12.6122 12.7326 13.1125 13.5"
          stroke="#171717" stroke-width="1.5" stroke-linecap="round" stroke-linejoin="round"/>
    <path d="M14.5 4L8.5 6L2.5 4L8.5 2L14.5 4Z" stroke="#171717" stroke-width="1.5" stroke-linecap="round"
          stroke-linejoin="round"/>
    <path d="M11.0813 5.13745C11.5399 5.63831 11.8429 6.26179 11.9534 6.93189C12.0639 7.60198 11.977 8.28973 11.7034 8.91131C11.4297 9.53288 10.9812 10.0614 10.4124 10.4325C9.8436 10.8036 9.17914 11.0012 8.5 11.0012C7.82087 11.0012 7.1564 10.8036 6.58761 10.4325C6.01881 10.0614 5.57027 9.53288 5.29664 8.91131C5.02302 8.28973 4.93615 7.60198 5.04661 6.93189C5.15707 6.26179 5.4601 5.63831 5.91875 5.13745"
          stroke="#171717" stroke-width="1.5" stroke-linecap="round" stroke-linejoin="round"/>
</svg>
