<svg width="32" height="32" viewBox="0 0 32 32" fill="none" xmlns="http://www.w3.org/2000/svg">
<rect width="32" height="32" rx="16" fill="#E5E5E5"/>
<path d="M24 25V23C24 21.9391 23.5786 20.9217 22.8284 20.1716C22.0783 19.4214 21.0609 19 20 19H12C10.9391 19 9.92172 19.4214 9.17157 20.1716C8.42143 20.9217 8 21.9391 8 23V25" stroke="#F4F4F4" stroke-width="2" stroke-linecap="round" stroke-linejoin="round"/>
<path d="M16 15C18.2091 15 20 13.2091 20 11C20 8.79086 18.2091 7 16 7C13.7909 7 12 8.79086 12 11C12 13.2091 13.7909 15 16 15Z" stroke="#F4F4F4" stroke-width="2" stroke-linecap="round" stroke-linejoin="round"/>
</svg>
