<svg width="8" height="8" viewBox="0 0 8 8" fill="none" xmlns="http://www.w3.org/2000/svg">
    <path fill-rule="evenodd" clip-rule="evenodd"
          d="M3.00112 7.20005C2.87058 7.19876 2.74158 7.16986 2.62158 7.11503C2.50158 7.0602 2.39297 6.98051 2.30204 6.8806L0.300783 4.74684C0.205884 4.65056 0.130324 4.5347 0.078693 4.40631C0.0270619 4.27792 0.000438213 4.13967 0.000438213 3.99997C0.000438213 3.86026 0.0270619 3.72201 0.078693 3.59362C0.130324 3.46523 0.205884 3.34937 0.300783 3.25309C0.70145 2.82679 1.35149 2.82679 1.70103 3.25309L3.00112 4.63998L6.30037 1.12045C6.39062 1.01921 6.49922 0.938607 6.61958 0.883529C6.73993 0.828451 6.86953 0.800049 7.00049 0.800049C7.13146 0.800049 7.26105 0.828451 7.38141 0.883529C7.50176 0.938607 7.61037 1.01921 7.70062 1.12045C7.79535 1.21671 7.87077 1.3325 7.92231 1.46079C7.97384 1.58907 8.00041 1.72719 8.00041 1.86676C8.00041 2.00633 7.97384 2.14445 7.92231 2.27274C7.87077 2.40103 7.79535 2.51681 7.70062 2.61308L3.70124 6.8806C3.61019 6.98065 3.50141 7.06041 3.38122 7.11524C3.26103 7.17008 3.13183 7.19891 3.00112 7.20005Z"
          fill="#171717"/>
</svg>
